<svg width="200" height="68" viewBox="0 0 200 68" fill="none" xmlns="http://www.w3.org/2000/svg">
<mask id="path-1-inside-1_3_12" fill="white">
<path fill-rule="evenodd" clip-rule="evenodd" d="M19 26.8695H3C3 29.9516 3.87145 32.8301 5.38139 35.2722C4.00641 37.814 2.19466 40.1762 0 42.2435C3.27641 43.3313 6.94548 43.2854 10.3805 41.8487C10.872 41.6431 11.3466 41.4141 11.8035 41.1636C13.9668 42.2549 16.4116 42.8695 19 42.8695V26.8695Z"/>
</mask>
<path fill-rule="evenodd" clip-rule="evenodd" d="M19 26.8695H3C3 29.9516 3.87145 32.8301 5.38139 35.2722C4.00641 37.814 2.19466 40.1762 0 42.2435C3.27641 43.3313 6.94548 43.2854 10.3805 41.8487C10.872 41.6431 11.3466 41.4141 11.8035 41.1636C13.9668 42.2549 16.4116 42.8695 19 42.8695V26.8695Z" fill="white"/>
<path d="M3 26.8695V26.3695H2.5V26.8695H3ZM19 26.8695H19.5V26.3695H19V26.8695ZM5.38139 35.2722L5.82117 35.5101L5.95891 35.2554L5.80666 35.0092L5.38139 35.2722ZM0 42.2435L-0.342829 41.8795L-0.952715 42.454L-0.157557 42.718L0 42.2435ZM10.3805 41.8487L10.1876 41.3874L10.3805 41.8487ZM11.8035 41.1636L12.0287 40.7172L11.7938 40.5987L11.5631 40.7252L11.8035 41.1636ZM19 42.8695V43.3695H19.5V42.8695H19ZM3 27.3695H19V26.3695H3V27.3695ZM5.80666 35.0092C4.34416 32.6439 3.5 29.856 3.5 26.8695H2.5C2.5 30.0471 3.39874 33.0163 4.95612 35.5351L5.80666 35.0092ZM4.94161 35.0343C3.59234 37.5286 1.8135 39.8484 -0.342829 41.8795L0.342829 42.6074C2.57582 40.5041 4.42048 38.0994 5.82117 35.5101L4.94161 35.0343ZM-0.157557 42.718C3.22907 43.8424 7.02283 43.795 10.5735 42.31L10.1876 41.3874C6.86813 42.7758 3.32375 42.8202 0.157557 41.7689L-0.157557 42.718ZM10.5735 42.31C11.0812 42.0976 11.5716 41.861 12.0439 41.602L11.5631 40.7252C11.1216 40.9673 10.6628 41.1886 10.1876 41.3874L10.5735 42.31ZM19 42.3695C16.4916 42.3695 14.1237 41.774 12.0287 40.7172L11.5783 41.61C13.8098 42.7357 16.3316 43.3695 19 43.3695V42.3695ZM18.5 26.8695V42.8695H19.5V26.8695H18.5Z" fill="#9BA9B0" mask="url(#path-1-inside-1_3_12)"/>
<mask id="path-3-inside-2_3_12" fill="white">
<path d="M3 16C3 7.16343 10.1634 0 19 0V27.8695H3V16Z"/>
</mask>
<path d="M3 16C3 7.16343 10.1634 0 19 0V27.8695H3V16Z" fill="white"/>
<path d="M2.5 16C2.5 6.8873 9.8873 -0.5 19 -0.5H19.5L18.5 0.5H19C10.4396 0.5 3.5 7.43959 3.5 16H2.5ZM19 27.8695H3H19ZM2.5 27.8695V16C2.5 6.8873 9.8873 -0.5 19 -0.5V0.5C10.4396 0.5 3.5 7.43959 3.5 16V27.8695H2.5ZM19.5 -0.5V27.8695H18.5V0.00766395C18.6666 0.00260505 18.8333 -1.4573e-08 19 0L19.5 -0.5Z" fill="#9BA9B0" mask="url(#path-3-inside-2_3_12)"/>
<mask id="path-5-inside-3_3_12" fill="white">
<path d="M18 0H169.5C181.374 0 191 9.62588 191 21.5C191 33.3741 181.374 43 169.5 43H18V0Z"/>
</mask>
<path d="M18 0H169.5C181.374 0 191 9.62588 191 21.5C191 33.3741 181.374 43 169.5 43H18V0Z" fill="white"/>
<path d="M18 -0.5H169.5C181.65 -0.5 191.5 9.34974 191.5 21.5H190.5C190.5 9.90202 181.098 0.5 169.5 0.5H18V-0.5ZM191.5 21.5C191.5 33.6503 181.65 43.5 169.5 43.5H18V42.5H169.5C181.098 42.5 190.5 33.098 190.5 21.5H191.5ZM18 43V0V43ZM169.5 -0.5C181.65 -0.5 191.5 9.34974 191.5 21.5C191.5 33.6503 181.65 43.5 169.5 43.5V42.5C181.098 42.5 190.5 33.098 190.5 21.5C190.5 9.90202 181.098 0.5 169.5 0.5V-0.5Z" fill="#9BA9B0" mask="url(#path-5-inside-3_3_12)"/>
<path d="M21.7429 29L18.3622 16.6364H19.8835L22.4673 26.706H22.5881L25.2202 16.6364H26.9105L29.5426 26.706H29.6634L32.2472 16.6364H33.7685L30.3878 29H28.8423L26.1136 19.1477H26.017L23.2884 29H21.7429ZM38.0572 29.1932C37.1637 29.1932 36.393 28.996 35.7451 28.6016C35.1011 28.2031 34.6041 27.6477 34.2539 26.9354C33.9078 26.219 33.7348 25.3859 33.7348 24.4361C33.7348 23.4863 33.9078 22.6491 34.2539 21.9247C34.6041 21.1963 35.0911 20.6288 35.7149 20.2223C36.3427 19.8118 37.0752 19.6065 37.9123 19.6065C38.3953 19.6065 38.8722 19.687 39.3431 19.848C39.8139 20.009 40.2426 20.2706 40.6289 20.6328C41.0153 20.991 41.3232 21.4659 41.5526 22.0575C41.782 22.6491 41.8967 23.3776 41.8967 24.2429V24.8466H34.749V23.6151H40.4478C40.4478 23.0919 40.3432 22.625 40.1339 22.2145C39.9286 21.804 39.6349 21.48 39.2525 21.2425C38.8742 21.0051 38.4275 20.8864 37.9123 20.8864C37.3448 20.8864 36.8538 21.0272 36.4393 21.3089C36.0288 21.5866 35.7129 21.9489 35.4915 22.3956C35.2701 22.8423 35.1595 23.3213 35.1595 23.8324V24.6534C35.1595 25.3537 35.2802 25.9473 35.5217 26.4343C35.7672 26.9173 36.1073 27.2855 36.5419 27.5391C36.9766 27.7886 37.4817 27.9134 38.0572 27.9134C38.4315 27.9134 38.7696 27.861 39.0714 27.7564C39.3773 27.6477 39.6409 27.4867 39.8622 27.2734C40.0836 27.0561 40.2546 26.7865 40.3754 26.4645L41.7518 26.8509C41.6069 27.3177 41.3634 27.7282 41.0213 28.0824C40.6792 28.4325 40.2567 28.7062 39.7536 28.9034C39.2505 29.0966 38.685 29.1932 38.0572 29.1932ZM45.0807 16.6364V29H43.6559V16.6364H45.0807ZM51.0492 29.1932C50.1799 29.1932 49.4313 28.9879 48.8034 28.5774C48.1756 28.1669 47.6926 27.6014 47.3546 26.881C47.0165 26.1606 46.8475 25.3376 46.8475 24.4119C46.8475 23.4702 47.0205 22.6391 47.3666 21.9187C47.7168 21.1942 48.2038 20.6288 48.8276 20.2223C49.4554 19.8118 50.1879 19.6065 51.025 19.6065C51.677 19.6065 52.2646 19.7273 52.7878 19.9688C53.311 20.2102 53.7396 20.5483 54.0737 20.983C54.4077 21.4176 54.615 21.9247 54.6955 22.5043H53.2708C53.1621 22.0817 52.9206 21.7074 52.5463 21.3814C52.1761 21.0514 51.677 20.8864 51.0492 20.8864C50.4938 20.8864 50.0068 21.0312 49.5882 21.321C49.1737 21.6068 48.8497 22.0112 48.6163 22.5344C48.3869 23.0536 48.2722 23.6634 48.2722 24.3636C48.2722 25.08 48.3849 25.7038 48.6103 26.2351C48.8397 26.7663 49.1616 27.1789 49.5762 27.4727C49.9947 27.7665 50.4857 27.9134 51.0492 27.9134C51.4194 27.9134 51.7555 27.849 52.0573 27.7202C52.3592 27.5914 52.6148 27.4062 52.824 27.1648C53.0333 26.9233 53.1822 26.6335 53.2708 26.2955H54.6955C54.615 26.8428 54.4158 27.3358 54.0978 27.7745C53.7839 28.2092 53.3674 28.5553 52.8482 28.8129C52.333 29.0664 51.7334 29.1932 51.0492 29.1932ZM60.1373 29.1932C59.3001 29.1932 58.5657 28.994 57.9338 28.5955C57.3059 28.1971 56.8149 27.6397 56.4608 26.9233C56.1106 26.2069 55.9356 25.3698 55.9356 24.4119C55.9356 23.446 56.1106 22.6029 56.4608 21.8825C56.8149 21.162 57.3059 20.6026 57.9338 20.2042C58.5657 19.8058 59.3001 19.6065 60.1373 19.6065C60.9744 19.6065 61.7069 19.8058 62.3347 20.2042C62.9666 20.6026 63.4576 21.162 63.8077 21.8825C64.1619 22.6029 64.339 23.446 64.339 24.4119C64.339 25.3698 64.1619 26.2069 63.8077 26.9233C63.4576 27.6397 62.9666 28.1971 62.3347 28.5955C61.7069 28.994 60.9744 29.1932 60.1373 29.1932ZM60.1373 27.9134C60.7732 27.9134 61.2964 27.7504 61.7069 27.4244C62.1174 27.0984 62.4212 26.6697 62.6184 26.1385C62.8157 25.6072 62.9143 25.0317 62.9143 24.4119C62.9143 23.7921 62.8157 23.2146 62.6184 22.6793C62.4212 22.1441 62.1174 21.7114 61.7069 21.3814C61.2964 21.0514 60.7732 20.8864 60.1373 20.8864C59.5014 20.8864 58.9782 21.0514 58.5677 21.3814C58.1572 21.7114 57.8533 22.1441 57.6561 22.6793C57.4589 23.2146 57.3603 23.7921 57.3603 24.4119C57.3603 25.0317 57.4589 25.6072 57.6561 26.1385C57.8533 26.6697 58.1572 27.0984 58.5677 27.4244C58.9782 27.7504 59.5014 27.9134 60.1373 27.9134ZM66.1058 29V19.7273H67.4822V21.1761H67.6029C67.7961 20.6811 68.108 20.2968 68.5387 20.0231C68.9693 19.7454 69.4865 19.6065 70.0901 19.6065C70.7019 19.6065 71.211 19.7454 71.6175 20.0231C72.028 20.2968 72.348 20.6811 72.5774 21.1761H72.674C72.9114 20.6972 73.2676 20.3169 73.7425 20.0352C74.2174 19.7494 74.7869 19.6065 75.4509 19.6065C76.28 19.6065 76.9582 19.8661 77.4854 20.3853C78.0126 20.9004 78.2762 21.7034 78.2762 22.794V29H76.8515V22.794C76.8515 22.1098 76.6644 21.6209 76.2901 21.3271C75.9158 21.0333 75.4751 20.8864 74.968 20.8864C74.316 20.8864 73.8109 21.0836 73.4527 21.478C73.0945 21.8684 72.9154 22.3634 72.9154 22.9631V29H71.4666V22.6491C71.4666 22.1219 71.2955 21.6973 70.9534 21.3754C70.6113 21.0494 70.1706 20.8864 69.6313 20.8864C69.2611 20.8864 68.915 20.985 68.593 21.1822C68.275 21.3794 68.0175 21.6531 67.8203 22.0032C67.6271 22.3493 67.5305 22.7498 67.5305 23.2045V29H66.1058ZM84.361 29.1932C83.4675 29.1932 82.6968 28.996 82.0488 28.6016C81.4049 28.2031 80.9078 27.6477 80.5577 26.9354C80.2116 26.219 80.0385 25.3859 80.0385 24.4361C80.0385 23.4863 80.2116 22.6491 80.5577 21.9247C80.9078 21.1963 81.3948 20.6288 82.0186 20.2223C82.6465 19.8118 83.3789 19.6065 84.2161 19.6065C84.699 19.6065 85.1759 19.687 85.6468 19.848C86.1177 20.009 86.5463 20.2706 86.9327 20.6328C87.319 20.991 87.6269 21.4659 87.8563 22.0575C88.0857 22.6491 88.2004 23.3776 88.2004 24.2429V24.8466H81.0527V23.6151H86.7516C86.7516 23.0919 86.6469 22.625 86.4377 22.2145C86.2324 21.804 85.9386 21.48 85.5563 21.2425C85.1779 21.0051 84.7312 20.8864 84.2161 20.8864C83.6486 20.8864 83.1576 21.0272 82.7431 21.3089C82.3325 21.5866 82.0166 21.9489 81.7953 22.3956C81.5739 22.8423 81.4632 23.3213 81.4632 23.8324V24.6534C81.4632 25.3537 81.584 25.9473 81.8254 26.4343C82.0709 26.9173 82.411 27.2855 82.8457 27.5391C83.2803 27.7886 83.7854 27.9134 84.361 27.9134C84.7352 27.9134 85.0733 27.861 85.3752 27.7564C85.681 27.6477 85.9446 27.4867 86.166 27.2734C86.3873 27.0561 86.5584 26.7865 86.6791 26.4645L88.0556 26.8509C87.9107 27.3177 87.6672 27.7282 87.3251 28.0824C86.983 28.4325 86.5604 28.7062 86.0573 28.9034C85.5543 29.0966 84.9888 29.1932 84.361 29.1932ZM98.3656 19.7273V20.9347H93.5602V19.7273H98.3656ZM94.9608 17.5057H96.3855V26.3438C96.3855 26.7462 96.4439 27.0481 96.5606 27.2493C96.6813 27.4465 96.8342 27.5793 97.0194 27.6477C97.2085 27.7121 97.4078 27.7443 97.617 27.7443C97.774 27.7443 97.9028 27.7363 98.0034 27.7202C98.104 27.7 98.1845 27.6839 98.2449 27.6719L98.5347 28.9517C98.4381 28.9879 98.3032 29.0241 98.1302 29.0604C97.9571 29.1006 97.7378 29.1207 97.4722 29.1207C97.0697 29.1207 96.6753 29.0342 96.2889 28.8612C95.9066 28.6881 95.5886 28.4245 95.3351 28.0703C95.0856 27.7161 94.9608 27.2694 94.9608 26.7301V17.5057ZM103.768 29.1932C102.931 29.1932 102.197 28.994 101.565 28.5955C100.937 28.1971 100.446 27.6397 100.092 26.9233C99.7415 26.2069 99.5665 25.3698 99.5665 24.4119C99.5665 23.446 99.7415 22.6029 100.092 21.8825C100.446 21.162 100.937 20.6026 101.565 20.2042C102.197 19.8058 102.931 19.6065 103.768 19.6065C104.605 19.6065 105.338 19.8058 105.966 20.2042C106.597 20.6026 107.088 21.162 107.439 21.8825C107.793 22.6029 107.97 23.446 107.97 24.4119C107.97 25.3698 107.793 26.2069 107.439 26.9233C107.088 27.6397 106.597 28.1971 105.966 28.5955C105.338 28.994 104.605 29.1932 103.768 29.1932ZM103.768 27.9134C104.404 27.9134 104.927 27.7504 105.338 27.4244C105.748 27.0984 106.052 26.6697 106.249 26.1385C106.447 25.6072 106.545 25.0317 106.545 24.4119C106.545 23.7921 106.447 23.2146 106.249 22.6793C106.052 22.1441 105.748 21.7114 105.338 21.3814C104.927 21.0514 104.404 20.8864 103.768 20.8864C103.132 20.8864 102.609 21.0514 102.199 21.3814C101.788 21.7114 101.484 22.1441 101.287 22.6793C101.09 23.2146 100.991 23.7921 100.991 24.4119C100.991 25.0317 101.09 25.6072 101.287 26.1385C101.484 26.6697 101.788 27.0984 102.199 27.4244C102.609 27.7504 103.132 27.9134 103.768 27.9134ZM124.107 16.6364V29H122.658L115.921 19.2926H115.8V29H114.303V16.6364H115.752L122.513 26.3679H122.634V16.6364H124.107ZM130.39 29.1932C129.496 29.1932 128.725 28.996 128.077 28.6016C127.433 28.2031 126.936 27.6477 126.586 26.9354C126.24 26.219 126.067 25.3859 126.067 24.4361C126.067 23.4863 126.24 22.6491 126.586 21.9247C126.936 21.1963 127.423 20.6288 128.047 20.2223C128.675 19.8118 129.408 19.6065 130.245 19.6065C130.728 19.6065 131.205 19.687 131.675 19.848C132.146 20.009 132.575 20.2706 132.961 20.6328C133.348 20.991 133.655 21.4659 133.885 22.0575C134.114 22.6491 134.229 23.3776 134.229 24.2429V24.8466H127.081V23.6151H132.78C132.78 23.0919 132.676 22.625 132.466 22.2145C132.261 21.804 131.967 21.48 131.585 21.2425C131.207 21.0051 130.76 20.8864 130.245 20.8864C129.677 20.8864 129.186 21.0272 128.772 21.3089C128.361 21.5866 128.045 21.9489 127.824 22.3956C127.602 22.8423 127.492 23.3213 127.492 23.8324V24.6534C127.492 25.3537 127.613 25.9473 127.854 26.4343C128.1 26.9173 128.44 27.2855 128.874 27.5391C129.309 27.7886 129.814 27.9134 130.39 27.9134C130.764 27.9134 131.102 27.861 131.404 27.7564C131.71 27.6477 131.973 27.4867 132.195 27.2734C132.416 27.0561 132.587 26.7865 132.708 26.4645L134.084 26.8509C133.939 27.3177 133.696 27.7282 133.354 28.0824C133.012 28.4325 132.589 28.7062 132.086 28.9034C131.583 29.0966 131.017 29.1932 130.39 29.1932ZM140.021 19.7273V20.9347H135.216V19.7273H140.021ZM136.616 17.5057H138.041V26.3438C138.041 26.7462 138.099 27.0481 138.216 27.2493C138.337 27.4465 138.49 27.5793 138.675 27.6477C138.864 27.7121 139.063 27.7443 139.272 27.7443C139.429 27.7443 139.558 27.7363 139.659 27.7202C139.759 27.7 139.84 27.6839 139.9 27.6719L140.19 28.9517C140.093 28.9879 139.959 29.0241 139.785 29.0604C139.612 29.1006 139.393 29.1207 139.127 29.1207C138.725 29.1207 138.331 29.0342 137.944 28.8612C137.562 28.6881 137.244 28.4245 136.99 28.0703C136.741 27.7161 136.616 27.2694 136.616 26.7301V17.5057ZM143.38 16.6364V29H141.955V16.6364H143.38ZM148.31 29.2173C147.723 29.2173 147.189 29.1067 146.71 28.8853C146.231 28.6599 145.851 28.3359 145.569 27.9134C145.288 27.4867 145.147 26.9716 145.147 26.3679C145.147 25.8366 145.251 25.406 145.461 25.076C145.67 24.742 145.95 24.4804 146.3 24.2912C146.65 24.102 147.036 23.9612 147.459 23.8686C147.886 23.772 148.314 23.6955 148.745 23.6392C149.308 23.5668 149.765 23.5124 150.115 23.4762C150.469 23.436 150.727 23.3696 150.888 23.277C151.053 23.1844 151.135 23.0234 151.135 22.794V22.7457C151.135 22.1501 150.972 21.6873 150.646 21.3572C150.324 21.0272 149.835 20.8622 149.179 20.8622C148.499 20.8622 147.966 21.0111 147.58 21.3089C147.193 21.6068 146.922 21.9247 146.765 22.2628L145.412 21.7798C145.654 21.2164 145.976 20.7777 146.378 20.4638C146.785 20.1458 147.228 19.9245 147.706 19.7997C148.189 19.6709 148.664 19.6065 149.131 19.6065C149.429 19.6065 149.771 19.6428 150.157 19.7152C150.548 19.7836 150.924 19.9265 151.286 20.1438C151.653 20.3612 151.956 20.6892 152.198 21.1278C152.439 21.5665 152.56 22.1541 152.56 22.8906V29H151.135V27.7443H151.063C150.966 27.9455 150.805 28.1609 150.58 28.3903C150.355 28.6197 150.055 28.8149 149.681 28.9759C149.306 29.1368 148.849 29.2173 148.31 29.2173ZM148.527 27.9375C149.091 27.9375 149.566 27.8268 149.952 27.6055C150.343 27.3841 150.636 27.0984 150.834 26.7482C151.035 26.3981 151.135 26.0298 151.135 25.6435V24.3395C151.075 24.4119 150.942 24.4783 150.737 24.5387C150.536 24.5951 150.302 24.6454 150.037 24.6896C149.775 24.7299 149.52 24.7661 149.27 24.7983C149.024 24.8265 148.825 24.8506 148.672 24.8707C148.302 24.919 147.956 24.9975 147.634 25.1062C147.316 25.2108 147.058 25.3698 146.861 25.5831C146.668 25.7924 146.571 26.0781 146.571 26.4403C146.571 26.9354 146.755 27.3097 147.121 27.5632C147.491 27.8127 147.96 27.9375 148.527 27.9375ZM154.946 29V16.6364H156.37V21.2003H156.491C156.596 21.0393 156.741 20.834 156.926 20.5845C157.115 20.331 157.385 20.1056 157.735 19.9084C158.089 19.7071 158.568 19.6065 159.172 19.6065C159.952 19.6065 160.641 19.8017 161.236 20.1921C161.832 20.5825 162.297 21.1359 162.631 21.8523C162.965 22.5687 163.132 23.4138 163.132 24.3878C163.132 25.3698 162.965 26.221 162.631 26.9414C162.297 27.6578 161.834 28.2132 161.242 28.6076C160.651 28.998 159.968 29.1932 159.196 29.1932C158.6 29.1932 158.123 29.0946 157.765 28.8974C157.407 28.6961 157.131 28.4687 156.938 28.2152C156.745 27.9576 156.596 27.7443 156.491 27.5753H156.322V29H154.946ZM156.346 24.3636C156.346 25.0639 156.449 25.6817 156.654 26.217C156.859 26.7482 157.159 27.1648 157.554 27.4666C157.948 27.7644 158.431 27.9134 159.003 27.9134C159.598 27.9134 160.095 27.7564 160.494 27.4425C160.896 27.1245 161.198 26.6979 161.399 26.1626C161.604 25.6233 161.707 25.0237 161.707 24.3636C161.707 23.7116 161.606 23.1241 161.405 22.6009C161.208 22.0736 160.908 21.6571 160.506 21.3512C160.107 21.0413 159.606 20.8864 159.003 20.8864C158.423 20.8864 157.936 21.0333 157.542 21.3271C157.147 21.6168 156.849 22.0233 156.648 22.5465C156.447 23.0657 156.346 23.6714 156.346 24.3636ZM171.16 16.6364L171.039 25.5227H169.639L169.518 16.6364H171.16ZM170.339 29.0966C170.041 29.0966 169.786 28.9899 169.572 28.7766C169.359 28.5633 169.252 28.3078 169.252 28.0099C169.252 27.7121 169.359 27.4566 169.572 27.2433C169.786 27.0299 170.041 26.9233 170.339 26.9233C170.637 26.9233 170.892 27.0299 171.106 27.2433C171.319 27.4566 171.426 27.7121 171.426 28.0099C171.426 28.2071 171.375 28.3883 171.275 28.5533C171.178 28.7183 171.047 28.8511 170.882 28.9517C170.721 29.0483 170.54 29.0966 170.339 29.0966ZM175.483 16.6364L175.363 25.5227H173.962L173.841 16.6364H175.483ZM174.662 29.0966C174.365 29.0966 174.109 28.9899 173.896 28.7766C173.682 28.5633 173.576 28.3078 173.576 28.0099C173.576 27.7121 173.682 27.4566 173.896 27.2433C174.109 27.0299 174.365 26.9233 174.662 26.9233C174.96 26.9233 175.216 27.0299 175.429 27.2433C175.642 27.4566 175.749 27.7121 175.749 28.0099C175.749 28.2071 175.699 28.3883 175.598 28.5533C175.501 28.7183 175.371 28.8511 175.206 28.9517C175.045 29.0483 174.864 29.0966 174.662 29.0966Z" fill="#22282B"/>
</svg>
