<svg width="185" height="185" viewBox="0 0 185 185" fill="none" xmlns="http://www.w3.org/2000/svg">
<path fill-rule="evenodd" clip-rule="evenodd" d="M75.3361 51.3889C75.3361 45.7694 79.8916 41.2139 85.5111 41.2139C91.1306 41.2139 95.6861 45.7694 95.6861 51.3889C95.6861 55.4585 93.2969 58.971 89.8426 60.5986L89.6148 60.7059L89.5601 60.9515C88.706 64.7779 89.2621 68.6477 90.5098 72.1825L90.6089 72.4633L90.9018 72.5169C93.2009 72.9377 95.3299 73.8458 97.1778 75.1307L97.4185 75.2979L97.6849 75.1762C106.001 71.3736 111.311 63.8388 114.163 57.5042L114.232 57.3514L114.197 57.1878C114.055 56.5109 113.981 55.8089 113.981 55.0889C113.981 49.4694 118.536 44.9139 124.156 44.9139C129.775 44.9139 134.331 49.4694 134.331 55.0889C134.331 60.7084 129.775 65.2639 124.156 65.2639C123.464 65.2639 122.79 65.195 122.139 65.0641L121.992 65.0347L121.853 65.0883C115.234 67.6348 110.405 71.9033 106.997 76.4667H108.29C111.546 72.2984 116.045 68.4559 122.085 66.1005C122.756 66.2261 123.448 66.2917 124.156 66.2917C130.343 66.2917 135.358 61.2761 135.358 55.0889C135.358 48.9017 130.343 43.8861 124.156 43.8861C117.968 43.8861 112.953 48.9017 112.953 55.0889C112.953 55.8215 113.023 56.538 113.158 57.2322C110.378 63.3403 105.312 70.4513 97.5199 74.1198C95.6923 72.8953 93.616 72.0123 91.3828 71.5627C90.2746 68.3086 89.8058 64.8293 90.5114 61.4165C94.1876 59.5799 96.7139 55.78 96.7139 51.3889C96.7139 45.2017 91.6983 40.1861 85.5111 40.1861C79.3239 40.1861 74.3083 45.2017 74.3083 51.3889C74.3083 55.3018 76.3149 58.7459 79.3529 60.7486C80.0801 64.0009 80.2127 68.3289 78.7824 73.8935C78.3187 74.1883 77.8702 74.5046 77.4383 74.8411C72.209 73.5122 66.2631 70.8383 61.7674 65.9983C61.7688 65.9249 61.7694 65.8516 61.7694 65.7778C61.7694 59.5905 56.7539 54.575 50.5667 54.575C44.3794 54.575 39.3639 59.5905 39.3639 65.7778C39.3639 71.965 44.3794 76.9805 50.5667 76.9805C51.5529 76.9805 52.5102 76.8529 53.4224 76.6132C59.675 78.2961 66.8503 81.6629 70.8357 87.5147C70.8213 87.8043 70.8139 88.0958 70.8139 88.3889C70.8139 89.8568 70.9983 91.2823 71.3454 92.6435C67.9266 97.2664 63.284 99.7594 59.0068 100.959C57.6199 100.344 56.0852 100.003 54.4722 100.003C48.285 100.003 43.2694 105.018 43.2694 111.206C43.2694 117.393 48.285 122.408 54.4722 122.408C60.6594 122.408 65.675 117.393 65.675 111.206C65.675 110.976 65.668 110.747 65.6544 110.52C70.5528 105.71 74.5731 103.233 77.6969 102.134C78.6971 102.884 79.7819 103.526 80.9344 104.046C81.9846 112.186 78.6799 119.335 74.8088 124.346C70.5551 125.935 67.525 130.035 67.525 134.844C67.525 141.032 72.5405 146.047 78.7278 146.047C84.915 146.047 89.9305 141.032 89.9305 134.844C89.9305 132.195 89.0103 129.76 87.4725 127.842C86.9738 118.371 89.6084 110.478 92.7043 104.894C92.8862 104.842 93.0669 104.787 93.2462 104.729C96.3439 107.472 99.9308 111.697 102.972 117.966C102.514 119.189 102.264 120.513 102.264 121.894C102.264 128.082 107.279 133.097 113.467 133.097C119.654 133.097 124.669 128.082 124.669 121.894C124.669 115.948 120.037 111.084 114.183 110.714C111.245 109.014 107.943 106.674 105.113 103.806H103.69C106.787 107.133 110.527 109.798 113.776 111.666L113.882 111.727L114.005 111.733C119.374 112.013 123.642 116.456 123.642 121.894C123.642 127.514 119.086 132.069 113.467 132.069C107.847 132.069 103.292 127.514 103.292 121.894C103.292 120.565 103.546 119.296 104.009 118.133L104.092 117.924L103.995 117.721C100.816 111.098 97.023 106.661 93.7524 103.806H92.7573C92.5812 103.86 92.4036 103.912 92.225 103.96L92.0171 104.017L91.9117 104.205C88.6746 109.971 85.8982 118.187 86.4554 128.065L86.4651 128.234L86.5726 128.364C88.0283 130.124 88.9028 132.381 88.9028 134.844C88.9028 140.464 84.3472 145.019 78.7278 145.019C73.1083 145.019 68.5528 140.464 68.5528 134.844C68.5528 130.43 71.365 126.67 75.2975 125.262L75.4378 125.212L75.5295 125.094C79.5874 119.887 83.1394 112.309 81.9141 103.62L81.8736 103.333L81.6082 103.219C80.3498 102.678 79.174 101.981 78.1047 101.153L77.8879 100.985L77.6276 101.072C74.2345 102.201 69.9415 104.835 64.7636 109.955L64.5931 110.124L64.6129 110.363C64.6355 110.64 64.6472 110.921 64.6472 111.206C64.6472 116.825 60.0917 121.381 54.4722 121.381C48.8527 121.381 44.2972 116.825 44.2972 111.206C44.2972 105.586 48.8527 101.031 54.4722 101.031C56.0005 101.031 57.4487 101.367 58.748 101.97L58.9184 102.049L59.0995 101.999C63.6542 100.757 68.6738 98.0969 72.321 93.0503L72.4647 92.8517L72.4006 92.6151C72.0363 91.2685 71.8417 89.8518 71.8417 88.3889C71.8417 88.0573 71.8517 87.728 71.8713 87.4014L71.8817 87.2289L71.7857 87.0852C67.5862 80.7954 59.9782 77.2928 53.554 75.5844L53.4193 75.5486L53.2851 75.5856C52.4204 75.8249 51.5089 75.9528 50.5667 75.9528C44.9472 75.9528 40.3917 71.3972 40.3917 65.7778C40.3917 60.1583 44.9472 55.6028 50.5667 55.6028C56.1861 55.6028 60.7417 60.1583 60.7417 65.7778C60.7417 65.9101 60.7392 66.0421 60.734 66.1733L60.726 66.3839L60.8683 66.5396C65.6296 71.7483 71.9689 74.5486 77.4352 75.8999L77.6821 75.961L77.8805 75.8017C78.395 75.3883 78.9354 75.006 79.4988 74.6574L79.6735 74.5492L79.7255 74.3507C81.2793 68.4268 81.1247 63.8011 80.3077 60.3131L80.2596 60.1083L80.0818 59.9959C77.2289 58.1924 75.3361 55.0114 75.3361 51.3889ZM31.3472 87.3611C31.3472 84.1257 33.9701 81.5028 37.2055 81.5028C40.441 81.5028 43.0639 84.1257 43.0639 87.3611C43.0639 90.5965 40.441 93.2194 37.2055 93.2194C33.9701 93.2194 31.3472 90.5965 31.3472 87.3611ZM37.2055 80.475C33.4023 80.475 30.3194 83.5579 30.3194 87.3611C30.3194 91.1643 33.4023 94.2472 37.2055 94.2472C41.0087 94.2472 44.0917 91.1643 44.0917 87.3611C44.0917 83.5579 41.0087 80.475 37.2055 80.475Z" fill="black"/>
<path fill-rule="evenodd" clip-rule="evenodd" d="M75.1306 51.3889C75.1306 45.6559 79.7782 41.0083 85.5111 41.0083C91.2441 41.0083 95.8917 45.6559 95.8917 51.3889C95.8917 55.5409 93.454 59.1244 89.9301 60.7846L89.7937 60.849L89.7608 60.9963C88.9172 64.7749 89.4648 68.6044 90.7036 72.114L90.7631 72.2826L90.9388 72.3149C93.2675 72.741 95.4236 73.6606 97.2952 74.962L97.4395 75.0623L97.5994 74.9891C105.854 71.2151 111.135 63.7294 113.975 57.4197L114.017 57.3282L113.996 57.2299C113.851 56.5393 113.775 55.8231 113.775 55.0889C113.775 49.3559 118.423 44.7083 124.156 44.7083C129.889 44.7083 134.536 49.3559 134.536 55.0889C134.536 60.8218 129.889 65.4694 124.156 65.4694C123.451 65.4694 122.763 65.3993 122.098 65.2655L122.01 65.2481L121.927 65.2801C115.41 67.7875 110.637 71.9755 107.254 76.4667H108.03C111.321 72.2127 115.896 68.2804 122.065 65.8877C122.742 66.0179 123.441 66.0861 124.156 66.0861C130.229 66.0861 135.153 61.1624 135.153 55.0889C135.153 49.0153 130.229 44.0917 124.156 44.0917C118.082 44.0917 113.158 49.0153 113.158 55.0889C113.158 55.8309 113.232 56.5559 113.372 57.2573C110.575 63.4309 105.44 70.6614 97.5014 74.3554C95.6413 73.0906 93.5163 72.1858 91.2268 71.7416C90.072 68.3998 89.5778 64.8055 90.3308 61.2765C93.988 59.4904 96.5083 55.7343 96.5083 51.3889C96.5083 45.3153 91.5847 40.3917 85.5111 40.3917C79.4376 40.3917 74.5139 45.3153 74.5139 51.3889C74.5139 55.2595 76.5137 58.6629 79.5352 60.6222C80.2896 63.9331 80.4324 68.3458 78.9611 74.0236C78.4503 74.3449 77.9578 74.6927 77.4856 75.065C72.1864 73.7332 66.1256 71.024 61.56 66.0771C61.5624 65.9776 61.5639 65.8779 61.5639 65.7778C61.5639 59.7042 56.6402 54.7806 50.5667 54.7806C44.4931 54.7806 39.5694 59.7042 39.5694 65.7778C39.5694 71.8513 44.4931 76.775 50.5667 76.775C51.5542 76.775 52.5116 76.6447 53.4229 76.4005C59.7262 78.0889 67.015 81.4923 71.0447 87.4565C71.0279 87.7652 71.0194 88.076 71.0194 88.3889C71.0194 89.8734 71.2102 91.3137 71.5689 92.6866C68.0925 97.4311 63.3448 99.9691 58.9905 101.176C57.6119 100.554 56.0821 100.208 54.4722 100.208C48.3987 100.208 43.475 105.132 43.475 111.206C43.475 117.279 48.3987 122.203 54.4722 122.203C60.5458 122.203 65.4694 117.279 65.4694 111.206C65.4694 110.948 65.4606 110.693 65.4431 110.44C70.4394 105.519 74.542 103.002 77.7331 101.904C78.7753 102.695 79.912 103.369 81.1233 103.905C82.2321 112.19 78.8604 119.455 74.9353 124.519C70.7308 126.064 67.7306 130.103 67.7306 134.844C67.7306 140.918 72.6542 145.842 78.7278 145.842C84.8013 145.842 89.725 140.918 89.725 134.844C89.725 132.22 88.8053 129.81 87.2709 127.919C86.7516 118.331 89.4296 110.348 92.5662 104.719C92.811 104.65 93.0538 104.576 93.2941 104.497C96.4448 107.267 100.105 111.559 103.196 117.956C102.726 119.179 102.469 120.507 102.469 121.894C102.469 127.968 107.393 132.892 113.467 132.892C119.54 132.892 124.464 127.968 124.464 121.894C124.464 116.041 119.891 111.256 114.122 110.917C111.115 109.181 107.717 106.772 104.826 103.806H103.972C107.024 107.047 110.685 109.652 113.878 111.488L113.942 111.524L114.016 111.528C119.493 111.814 123.847 116.346 123.847 121.894C123.847 127.627 119.2 132.275 113.467 132.275C107.734 132.275 103.086 127.627 103.086 121.894C103.086 120.539 103.346 119.244 103.818 118.058L103.868 117.932L103.81 117.81C100.626 111.178 96.8278 106.752 93.5662 103.916L93.4394 103.806H93.4137L93.264 103.857C92.9403 103.967 92.6116 104.068 92.279 104.159L92.1543 104.193L92.0909 104.305C88.8695 110.044 86.106 118.221 86.6608 128.054L86.6663 128.155L86.7309 128.233C88.2162 130.029 89.1083 132.332 89.1083 134.844C89.1083 140.577 84.4607 145.225 78.7278 145.225C72.9948 145.225 68.3472 140.577 68.3472 134.844C68.3472 130.34 71.2166 126.505 75.2282 125.068L75.3125 125.038L75.3674 124.968C79.4045 119.787 82.9254 112.264 81.7104 103.648L81.6863 103.477L81.527 103.408C80.2526 102.86 79.0616 102.154 77.9789 101.315L77.8488 101.215L77.6926 101.267C74.3392 102.383 70.0722 104.994 64.9083 110.101L64.8059 110.202L64.8176 110.346C64.8409 110.629 64.8528 110.916 64.8528 111.206C64.8528 116.938 60.2052 121.586 54.4722 121.586C48.7393 121.586 44.0917 116.938 44.0917 111.206C44.0917 105.473 48.7393 100.825 54.4722 100.825C56.0309 100.825 57.5087 101.168 58.8345 101.783L58.9367 101.831L59.0454 101.801C63.5662 100.568 68.5411 97.9297 72.1545 92.9298L72.2407 92.8106L72.2022 92.6688C71.833 91.3049 71.6361 89.8701 71.6361 88.3889C71.6361 88.0532 71.6462 87.7198 71.6661 87.3891L71.6725 87.2857L71.6147 87.1993C67.4565 80.9714 59.9073 77.4866 53.5012 75.783L53.4204 75.7616L53.3398 75.7838C52.4574 76.0278 51.5276 76.1583 50.5667 76.1583C44.8337 76.1583 40.1861 71.5107 40.1861 65.7778C40.1861 60.0448 44.8337 55.3972 50.5667 55.3972C56.2996 55.3972 60.9472 60.0448 60.9472 65.7778C60.9472 65.9128 60.9445 66.0473 60.9396 66.1811L60.9347 66.3075L61.02 66.4008C65.7453 71.5703 72.0433 74.3552 77.4846 75.7004L77.6328 75.7369L77.7518 75.6414C78.2729 75.2228 78.8201 74.8356 79.3907 74.4824L79.4955 74.4177L79.5268 74.2985C81.0728 68.4044 80.9163 63.8129 80.1075 60.3599L80.0787 60.2372L79.972 60.1698C77.062 58.3301 75.1306 55.085 75.1306 51.3889ZM31.1417 87.3611C31.1417 84.0122 33.8566 81.2972 37.2056 81.2972C40.5545 81.2972 43.2694 84.0122 43.2694 87.3611C43.2694 90.71 40.5545 93.425 37.2056 93.425C33.8566 93.425 31.1417 90.71 31.1417 87.3611ZM37.2056 80.6806C33.516 80.6806 30.525 83.6716 30.525 87.3611C30.525 91.0506 33.516 94.0417 37.2056 94.0417C40.8951 94.0417 43.8861 91.0506 43.8861 87.3611C43.8861 83.6716 40.8951 80.6806 37.2056 80.6806Z" fill="black"/>
<path d="M89.7937 60.849L89.5745 60.3842L89.3468 60.4915L89.2921 60.7372L89.7937 60.849ZM89.7608 60.9964L90.2621 61.1084H90.2623L89.7608 60.9964ZM90.7631 72.2826L90.2786 72.4536L90.3776 72.7344L90.6706 72.7881L90.7631 72.2826ZM97.4395 75.0623L97.1462 75.4844L97.3869 75.6515L97.6533 75.5296L97.4395 75.0623ZM114.017 57.3282L114.485 57.5391L114.554 57.3866L114.52 57.2228L114.017 57.3282ZM122.01 65.2481L122.112 64.7443L121.965 64.7147L121.826 64.7683L122.01 65.2481ZM107.254 76.4667L106.844 76.1575L106.224 76.9806H107.254V76.4667ZM108.03 76.4667V76.9806H108.282L108.436 76.7812L108.03 76.4667ZM122.065 65.8878L122.162 65.3831L122.017 65.3552L121.879 65.4086L122.065 65.8878ZM113.372 57.2573L113.84 57.4695L113.908 57.3188L113.876 57.1564L113.372 57.2573ZM97.5014 74.3554L97.2126 74.7803L97.4537 74.9444L97.7182 74.8212L97.5014 74.3554ZM91.2268 71.7416L90.7411 71.9093L90.8379 72.1895L91.1287 72.246L91.2268 71.7416ZM90.3308 61.2766L90.1053 60.8147L89.8804 60.9244L89.8282 61.1693L90.3308 61.2766ZM79.5352 60.6223L80.0361 60.508L79.9899 60.3047L79.8148 60.191L79.5352 60.6223ZM78.9611 74.0237L79.2347 74.4586L79.4073 74.3501L79.4585 74.1526L78.9611 74.0237ZM77.4856 75.065L77.3604 75.5635L77.6054 75.6252L77.8038 75.4687L77.4856 75.065ZM61.56 66.0771L61.0461 66.0633L61.0405 66.272L61.1822 66.4255L61.56 66.0771ZM53.4229 76.4005L53.5559 75.9041L53.4227 75.8683L53.2897 75.9041L53.4229 76.4005ZM71.0447 87.4565L71.5578 87.4843L71.567 87.3118L71.4704 87.1687L71.0447 87.4565ZM71.5689 92.6867L71.9833 92.9903L72.1278 92.7932L72.0661 92.5568L71.5689 92.6867ZM58.9905 101.177L58.7792 101.645L58.9488 101.721L59.1278 101.672L58.9905 101.177ZM65.4431 110.44L65.0826 110.074L64.9142 110.239L64.9305 110.475L65.4431 110.44ZM77.7331 101.904L78.0437 101.495L77.8252 101.329L77.5658 101.418L77.7331 101.904ZM81.1233 103.905L81.6327 103.837L81.5945 103.551L81.3311 103.435L81.1233 103.905ZM74.9353 124.519L75.1127 125.001L75.2512 124.95L75.3415 124.834L74.9353 124.519ZM87.2709 127.919L86.7578 127.947L86.7668 128.113L86.8719 128.243L87.2709 127.919ZM92.5662 104.719L92.4274 104.224L92.2215 104.282L92.1173 104.469L92.5662 104.719ZM93.2941 104.497L93.6334 104.111L93.4125 103.917L93.1331 104.009L93.2941 104.497ZM103.196 117.956L103.675 118.14L103.755 117.933L103.658 117.733L103.196 117.956ZM114.122 110.917L113.865 111.362L113.971 111.422L114.092 111.429L114.122 110.917ZM104.826 103.806L105.194 103.447L105.042 103.292H104.826V103.806ZM103.972 103.806V103.292H102.782L103.598 104.158L103.972 103.806ZM113.942 111.524L113.686 111.97L113.793 112.031L113.915 112.037L113.942 111.524ZM103.868 117.932L104.346 118.122L104.429 117.913L104.332 117.71L103.868 117.932ZM93.4394 103.806L93.7765 103.418L93.6316 103.292H93.4394V103.806ZM93.4137 103.806V103.292H93.3284L93.2476 103.319L93.4137 103.806ZM92.1543 104.193L92.0194 103.697L91.8116 103.753L91.7061 103.941L92.1543 104.193ZM86.6663 128.155L86.1533 128.184L86.1629 128.352L86.2704 128.483L86.6663 128.155ZM75.3125 125.038L75.4855 125.522L75.6261 125.472L75.7178 125.354L75.3125 125.038ZM81.6863 103.477L82.1951 103.405L82.1548 103.119L81.8892 103.005L81.6863 103.477ZM77.8488 101.215L78.1635 100.809L77.9467 100.641L77.6864 100.727L77.8488 101.215ZM64.8059 110.202L64.4445 109.837L64.2741 110.006L64.2939 110.244L64.8059 110.202ZM58.9367 101.831L58.7204 102.297L58.8908 102.376L59.0719 102.326L58.9367 101.831ZM72.2407 92.8106L72.6571 93.1118L72.8006 92.913L72.7367 92.6764L72.2407 92.8106ZM71.6725 87.2857L72.1854 87.3165L72.1958 87.1441L72.0998 87.0002L71.6725 87.2857ZM53.4204 75.7616L53.5526 75.265L53.4179 75.229L53.2835 75.2663L53.4204 75.7616ZM60.9347 66.3075L60.4212 66.2878L60.4132 66.4985L60.5554 66.6543L60.9347 66.3075ZM77.6328 75.737L77.5094 76.2359L77.7563 76.2969L77.9547 76.1376L77.6328 75.737ZM79.4955 74.4177L79.7658 74.8547L79.9406 74.7466L79.9926 74.548L79.4955 74.4177ZM80.0787 60.2373L80.579 60.1199L80.5311 59.9152L80.3533 59.8027L80.0787 60.2373ZM85.5111 40.4945C79.4943 40.4945 74.6167 45.3721 74.6167 51.3889H75.6444C75.6444 45.9396 80.0618 41.5223 85.5111 41.5223V40.4945ZM96.4056 51.3889C96.4056 45.3721 91.5279 40.4945 85.5111 40.4945V41.5223C90.9604 41.5223 95.3778 45.9396 95.3778 51.3889H96.4056ZM90.1493 61.2496C93.8462 59.5075 96.4056 55.7473 96.4056 51.3889H95.3778C95.3778 55.3348 93.0616 58.7412 89.7112 60.3199L90.1493 61.2496ZM90.0126 61.314L90.1493 61.2496L89.7112 60.3199L89.5745 60.3842L90.0126 61.314ZM90.2623 61.1084L90.2952 60.961L89.2921 60.7372L89.2592 60.8846L90.2623 61.1084ZM91.1881 71.943C89.9715 68.4959 89.4454 64.7671 90.2621 61.1084L89.2592 60.8846C88.3891 64.7825 88.9581 68.7129 90.219 72.2853L91.1881 71.943ZM91.2478 72.1116L91.1881 71.943L90.219 72.2853L90.2786 72.4536L91.2478 72.1116ZM91.0313 71.8092L90.8556 71.7772L90.6706 72.7881L90.8463 72.8203L91.0313 71.8092ZM97.5885 74.54C95.6584 73.198 93.4338 72.2489 91.0313 71.8092L90.8463 72.8203C93.101 73.2329 95.1891 74.1236 97.0019 75.3838L97.5885 74.54ZM97.733 74.6403L97.5885 74.54L97.0019 75.3838L97.1462 75.4844L97.733 74.6403ZM97.3858 74.5219L97.2259 74.5949L97.6533 75.5296L97.8132 75.4566L97.3858 74.5219ZM113.507 57.2088C110.695 63.4556 105.485 70.8189 97.3858 74.5219L97.8132 75.4566C106.223 71.6115 111.575 64.003 114.444 57.6308L113.507 57.2088ZM113.548 57.1173L113.507 57.2088L114.444 57.6308L114.485 57.5391L113.548 57.1173ZM113.493 57.3354L113.514 57.4337L114.52 57.2228L114.499 57.1245L113.493 57.3354ZM113.261 55.0889C113.261 55.8587 113.341 56.6102 113.493 57.3354L114.499 57.1245C114.361 56.4684 114.289 55.7876 114.289 55.0889H113.261ZM124.156 44.1945C118.139 44.1945 113.261 49.0721 113.261 55.0889H114.289C114.289 49.6396 118.706 45.2223 124.156 45.2223V44.1945ZM135.05 55.0889C135.05 49.0721 130.172 44.1945 124.156 44.1945V45.2223C129.605 45.2223 134.022 49.6396 134.022 55.0889H135.05ZM124.156 65.9834C130.172 65.9834 135.05 61.1057 135.05 55.0889H134.022C134.022 60.5382 129.605 64.9556 124.156 64.9556V65.9834ZM121.997 65.7694C122.695 65.9098 123.417 65.9834 124.156 65.9834V64.9556C123.485 64.9556 122.831 64.8888 122.199 64.762L121.997 65.7694ZM121.909 65.7519L121.997 65.7694L122.199 64.762L122.112 64.7443L121.909 65.7519ZM122.111 65.7597L122.195 65.7277L121.826 64.7683L121.742 64.8006L122.111 65.7597ZM107.665 76.7759C111 72.3482 115.698 68.227 122.111 65.7597L121.742 64.8006C115.121 67.348 110.274 71.6031 106.844 76.1575L107.665 76.7759ZM107.254 76.9806H108.03V75.9528H107.254V76.9806ZM121.879 65.4086C115.609 67.8404 110.963 71.8366 107.624 76.1522L108.436 76.7812C111.68 72.5887 116.182 68.7205 122.251 66.3667L121.879 65.4086ZM124.156 65.5723C123.474 65.5723 122.808 65.5073 122.162 65.3831L121.968 66.3922C122.677 66.5287 123.408 66.6 124.156 66.6V65.5723ZM134.639 55.0889C134.639 60.8788 129.945 65.5723 124.156 65.5723V66.6C130.513 66.6 135.667 61.4463 135.667 55.0889H134.639ZM124.156 44.6056C129.945 44.6056 134.639 49.299 134.639 55.0889H135.667C135.667 48.7315 130.513 43.5778 124.156 43.5778V44.6056ZM113.672 55.0889C113.672 49.299 118.366 44.6056 124.156 44.6056V43.5778C117.798 43.5778 112.644 48.7315 112.644 55.0889H113.672ZM113.876 57.1564C113.742 56.4881 113.672 55.7969 113.672 55.0889H112.644C112.644 55.8649 112.721 56.6238 112.868 57.358L113.876 57.1564ZM97.7182 74.8212C105.809 71.0565 111.015 63.7056 113.84 57.4695L112.904 57.0452C110.135 63.1564 105.071 70.2663 97.2845 73.8894L97.7182 74.8212ZM91.1287 72.246C93.3483 72.6767 95.4086 73.5538 97.2126 74.7803L97.7904 73.9304C95.874 72.6273 93.684 71.6949 91.3246 71.2372L91.1287 72.246ZM89.8282 61.1693C89.0506 64.8142 89.5651 68.5059 90.7411 71.9093L91.7123 71.5737C90.5791 68.2936 90.1051 64.7971 90.8334 61.3836L89.8282 61.1693ZM95.9944 51.3889C95.9944 55.5305 93.5929 59.1116 90.1053 60.8147L90.5563 61.7382C94.3831 59.8693 97.0222 55.9381 97.0222 51.3889H95.9944ZM85.5111 40.9056C91.301 40.9056 95.9944 45.599 95.9944 51.3889H97.0222C97.0222 45.0315 91.8685 39.8778 85.5111 39.8778V40.9056ZM75.0278 51.3889C75.0278 45.599 79.7212 40.9056 85.5111 40.9056V39.8778C79.1537 39.8778 74 45.0315 74 51.3889H75.0278ZM79.8148 60.191C76.9333 58.3223 75.0278 55.078 75.0278 51.3889H74C74 55.4408 76.0942 59.0033 79.2554 61.0533L79.8148 60.191ZM79.4585 74.1526C80.9488 68.4017 80.8103 63.9056 80.0361 60.508L79.034 60.7364C79.7689 63.9609 79.9161 68.2899 78.4636 73.8948L79.4585 74.1526ZM77.8038 75.4687C78.2618 75.1076 78.7393 74.7702 79.2347 74.4586L78.6875 73.5887C78.1613 73.9197 77.654 74.2779 77.1674 74.6615L77.8038 75.4687ZM61.1822 66.4255C65.8368 71.4686 71.9993 74.2161 77.3604 75.5635L77.611 74.5667C72.3734 73.2504 66.4146 70.5794 61.9376 65.7285L61.1822 66.4255ZM61.05 65.7778C61.05 65.8732 61.0488 65.9684 61.0461 66.0633L62.0737 66.0907C62.0763 65.9867 62.0778 65.8824 62.0778 65.7778H61.05ZM50.5667 55.2945C56.3565 55.2945 61.05 59.9879 61.05 65.7778H62.0778C62.0778 59.4204 56.9241 54.2667 50.5667 54.2667V55.2945ZM40.0833 65.7778C40.0833 59.9879 44.7768 55.2945 50.5667 55.2945V54.2667C44.2092 54.2667 39.0556 59.4204 39.0556 65.7778H40.0833ZM50.5667 76.2611C44.7768 76.2611 40.0833 71.5677 40.0833 65.7778H39.0556C39.0556 72.1352 44.2092 77.2889 50.5667 77.2889V76.2611ZM53.2897 75.9041C52.4216 76.137 51.5087 76.2611 50.5667 76.2611V77.2889C51.5996 77.2889 52.6019 77.1526 53.5561 76.8967L53.2897 75.9041ZM71.4704 87.1687C67.3381 81.0526 59.9048 77.6049 53.5559 75.9041L53.2899 76.8967C59.5478 78.5732 66.6919 81.9318 70.6188 87.7441L71.4704 87.1687ZM71.5333 88.3889C71.5333 88.0853 71.5415 87.7838 71.5578 87.4843L70.5315 87.4286C70.5142 87.7466 70.5056 88.0668 70.5056 88.3889H71.5333ZM72.0661 92.5568C71.7185 91.226 71.5333 89.8293 71.5333 88.3889H70.5056C70.5056 89.9176 70.7021 91.4015 71.0717 92.8164L72.0661 92.5568ZM59.1278 101.672C63.5658 100.441 68.4235 97.8488 71.9833 92.9903L71.1543 92.3829C67.7614 97.0134 63.1241 99.4971 58.8532 100.681L59.1278 101.672ZM54.4722 100.722C56.0077 100.722 57.4655 101.052 58.7792 101.645L59.2021 100.708C57.758 100.057 56.1563 99.6945 54.4722 99.6945V100.722ZM43.9889 111.206C43.9889 105.416 48.6823 100.722 54.4722 100.722V99.6945C48.1148 99.6945 42.9611 104.848 42.9611 111.206H43.9889ZM54.4722 121.689C48.6823 121.689 43.9889 116.995 43.9889 111.206H42.9611C42.9611 117.563 48.1148 122.717 54.4722 122.717V121.689ZM64.9556 111.206C64.9556 116.995 60.2621 121.689 54.4722 121.689V122.717C60.8296 122.717 65.9833 117.563 65.9833 111.206H64.9556ZM64.9305 110.475C64.9471 110.716 64.9556 110.96 64.9556 111.206H65.9833C65.9833 110.937 65.9741 110.669 65.9558 110.405L64.9305 110.475ZM77.5658 101.418C74.2787 102.55 70.1125 105.12 65.0826 110.074L65.8037 110.806C70.7662 105.919 74.8054 103.455 77.9002 102.39L77.5658 101.418ZM81.3311 103.435C80.1568 102.915 79.0546 102.262 78.0437 101.495L77.4223 102.313C78.4959 103.128 79.6672 103.822 80.9153 104.375L81.3311 103.435ZM75.3415 124.834C79.3177 119.704 82.7657 112.304 81.6327 103.837L80.614 103.973C81.6985 112.077 78.403 119.206 74.5293 124.204L75.3415 124.834ZM68.2444 134.844C68.2444 130.326 71.1037 126.474 75.1127 125.001L74.7581 124.036C70.358 125.653 67.2167 129.881 67.2167 134.844H68.2444ZM78.7278 145.328C72.9379 145.328 68.2444 140.634 68.2444 134.844H67.2167C67.2167 141.202 72.3704 146.356 78.7278 146.356V145.328ZM89.2111 134.844C89.2111 140.634 84.5177 145.328 78.7278 145.328V146.356C85.0852 146.356 90.2389 141.202 90.2389 134.844H89.2111ZM86.8719 128.243C88.3346 130.045 89.2111 132.342 89.2111 134.844H90.2389C90.2389 132.098 89.2759 129.574 87.6699 127.595L86.8719 128.243ZM92.1173 104.469C88.942 110.168 86.2324 118.246 86.7578 127.947L87.7839 127.891C87.2709 118.416 89.9174 110.529 93.0151 104.969L92.1173 104.469ZM93.1331 104.009C92.9002 104.086 92.6649 104.158 92.4274 104.224L92.7049 105.214C92.9574 105.143 93.2075 105.067 93.4552 104.985L93.1331 104.009ZM103.658 117.733C100.537 111.272 96.8343 106.925 93.6334 104.111L92.9549 104.883C96.0553 107.609 99.6731 111.846 102.733 118.18L103.658 117.733ZM102.983 121.894C102.983 120.571 103.228 119.306 103.675 118.14L102.716 117.772C102.224 119.053 101.956 120.443 101.956 121.894H102.983ZM113.467 132.378C107.677 132.378 102.983 127.684 102.983 121.894H101.956C101.956 128.252 107.109 133.406 113.467 133.406V132.378ZM123.95 121.894C123.95 127.684 119.257 132.378 113.467 132.378V133.406C119.824 133.406 124.978 128.252 124.978 121.894H123.95ZM114.092 111.429C119.591 111.753 123.95 116.315 123.95 121.894H124.978C124.978 115.767 120.191 110.759 114.152 110.404L114.092 111.429ZM104.458 104.164C107.39 107.172 110.829 109.609 113.865 111.362L114.379 110.471C111.402 108.753 108.044 106.371 105.194 103.447L104.458 104.164ZM104.826 103.292H103.972V104.319H104.826V103.292ZM114.134 111.042C110.972 109.224 107.355 106.649 104.346 103.453L103.598 104.158C106.693 107.446 110.398 110.079 113.622 111.933L114.134 111.042ZM114.198 111.079L114.134 111.042L113.622 111.933L113.686 111.97L114.198 111.079ZM114.043 111.015L113.969 111.011L113.915 112.037L113.989 112.041L114.043 111.015ZM124.361 121.894C124.361 116.071 119.792 111.315 114.043 111.015L113.989 112.041C119.195 112.313 123.333 116.621 123.333 121.894H124.361ZM113.467 132.789C119.483 132.789 124.361 127.911 124.361 121.894H123.333C123.333 127.344 118.916 131.761 113.467 131.761V132.789ZM102.572 121.894C102.572 127.911 107.45 132.789 113.467 132.789V131.761C108.017 131.761 103.6 127.344 103.6 121.894H102.572ZM103.341 117.867C102.845 119.114 102.572 120.472 102.572 121.894H103.6C103.6 120.605 103.847 119.375 104.296 118.248L103.341 117.867ZM103.391 117.742L103.341 117.867L104.296 118.248L104.346 118.122L103.391 117.742ZM103.346 118.033L103.405 118.154L104.332 117.71L104.273 117.588L103.346 118.033ZM93.2289 104.304C96.4391 107.095 100.194 111.465 103.346 118.033L104.273 117.588C101.059 110.89 97.2163 106.409 93.9033 103.528L93.2289 104.304ZM93.1023 104.193L93.2289 104.304L93.9033 103.528L93.7765 103.418L93.1023 104.193ZM93.4394 103.292H93.4137V104.319H93.4394V103.292ZM93.4303 104.343L93.58 104.292L93.2476 103.319L93.098 103.37L93.4303 104.343ZM92.4139 104.655C92.7571 104.561 93.0961 104.457 93.4303 104.343L93.098 103.37C92.7843 103.478 92.4663 103.575 92.144 103.663L92.4139 104.655ZM92.2893 104.688L92.4139 104.655L92.144 103.663L92.0194 103.697L92.2893 104.688ZM92.5391 104.557L92.6024 104.444L91.7061 103.941L91.643 104.054L92.5391 104.557ZM87.1738 128.025C86.6254 118.306 89.3571 110.225 92.5391 104.557L91.643 104.054C88.3821 109.862 85.5865 118.136 86.1477 128.083L87.1738 128.025ZM87.1796 128.126L87.1738 128.025L86.1477 128.083L86.1533 128.184L87.1796 128.126ZM87.127 127.906L87.0624 127.827L86.2704 128.483L86.335 128.561L87.127 127.906ZM89.6222 134.844C89.6222 132.208 88.6855 129.79 87.127 127.906L86.335 128.561C87.7467 130.268 88.5944 132.456 88.5944 134.844H89.6222ZM78.7278 145.739C84.7446 145.739 89.6222 140.861 89.6222 134.844H88.5944C88.5944 140.294 84.1771 144.711 78.7278 144.711V145.739ZM67.8333 134.844C67.8333 140.861 72.711 145.739 78.7278 145.739V144.711C73.2785 144.711 68.8611 140.294 68.8611 134.844H67.8333ZM75.0549 124.585C70.8453 126.092 67.8333 130.116 67.8333 134.844H68.8611C68.8611 130.564 71.5876 126.918 75.4013 125.552L75.0549 124.585ZM75.1392 124.555L75.0549 124.585L75.4013 125.552L75.4855 125.522L75.1392 124.555ZM74.962 124.652L74.9071 124.723L75.7178 125.354L75.7727 125.284L74.962 124.652ZM81.2016 103.72C82.3906 112.152 78.9475 119.537 74.962 124.652L75.7727 125.284C79.8616 120.036 83.4603 112.377 82.2193 103.577L81.2016 103.72ZM81.1774 103.548L81.2016 103.72L82.2193 103.577L82.1951 103.405L81.1774 103.548ZM81.3239 103.88L81.4832 103.949L81.8892 103.005L81.7299 102.936L81.3239 103.88ZM77.6642 101.722C78.7808 102.587 80.0092 103.315 81.3239 103.88L81.7299 102.936C80.496 102.405 79.3424 101.722 78.2936 100.909L77.6642 101.722ZM77.5341 101.621L77.6642 101.722L78.2936 100.909L78.1635 100.809L77.5341 101.621ZM77.855 101.754L78.0112 101.702L77.6864 100.727L77.5302 100.779L77.855 101.754ZM65.2694 110.467C70.3997 105.393 74.601 102.838 77.855 101.754L77.5302 100.779C74.0773 101.929 69.745 104.595 64.5469 109.736L65.2694 110.467ZM65.1673 110.568L65.2694 110.467L64.5469 109.736L64.4445 109.837L65.1673 110.568ZM65.3299 110.304L65.3182 110.161L64.2939 110.244L64.3056 110.388L65.3299 110.304ZM65.3667 111.206C65.3667 110.902 65.3543 110.601 65.3299 110.304L64.3056 110.388C64.3276 110.657 64.3389 110.93 64.3389 111.206H65.3667ZM54.4722 122.1C60.489 122.1 65.3667 117.222 65.3667 111.206H64.3389C64.3389 116.655 59.9215 121.072 54.4722 121.072V122.1ZM43.5778 111.206C43.5778 117.222 48.4554 122.1 54.4722 122.1V121.072C49.0229 121.072 44.6056 116.655 44.6056 111.206H43.5778ZM54.4722 100.311C48.4554 100.311 43.5778 105.189 43.5778 111.206H44.6056C44.6056 105.756 49.0229 101.339 54.4722 101.339V100.311ZM59.0508 101.317C57.6585 100.671 56.1072 100.311 54.4722 100.311V101.339C55.9547 101.339 57.3588 101.665 58.6183 102.25L59.0508 101.317ZM59.1529 101.364L59.0508 101.317L58.6183 102.25L58.7204 102.297L59.1529 101.364ZM58.9102 101.305L58.8016 101.335L59.0719 102.326L59.1807 102.297L58.9102 101.305ZM71.7379 92.6289C68.2089 97.5121 63.3465 100.096 58.9102 101.305L59.1807 102.297C63.7859 101.041 68.873 98.3475 72.571 93.231L71.7379 92.6289ZM71.8242 92.5097L71.7379 92.6289L72.571 93.231L72.6571 93.1118L71.8242 92.5097ZM71.7062 92.803L71.7446 92.9449L72.7367 92.6764L72.6982 92.5346L71.7062 92.803ZM71.1222 88.3889C71.1222 89.916 71.3253 91.3958 71.7062 92.803L72.6982 92.5346C72.341 91.2141 72.15 89.8245 72.15 88.3889H71.1222ZM71.1533 87.3583C71.1327 87.6991 71.1222 88.0428 71.1222 88.3889H72.15C72.15 88.0635 72.1599 87.7404 72.1792 87.4201L71.1533 87.3583ZM71.1594 87.2547L71.1533 87.3583L72.1792 87.4201L72.1854 87.3165L71.1594 87.2547ZM71.1874 87.4847L71.2451 87.571L72.0998 87.0002L72.0423 86.9141L71.1874 87.4847ZM53.3692 76.2796C59.7299 77.9712 67.1322 81.4113 71.1874 87.4847L72.0423 86.9141C67.7807 80.5318 60.0847 77.0022 53.6333 75.2864L53.3692 76.2796ZM53.2884 76.2583L53.3692 76.2796L53.6333 75.2864L53.5526 75.265L53.2884 76.2583ZM53.4767 76.2792L53.5575 76.2568L53.2835 75.2663L53.2029 75.2887L53.4767 76.2792ZM50.5667 76.6723C51.5743 76.6723 52.5503 76.5354 53.4767 76.2792L53.2029 75.2887C52.3647 75.5203 51.4808 75.6445 50.5667 75.6445V76.6723ZM39.6722 65.7778C39.6722 71.7946 44.5498 76.6723 50.5667 76.6723V75.6445C45.1174 75.6445 40.7 71.2271 40.7 65.7778H39.6722ZM50.5667 54.8834C44.5498 54.8834 39.6722 59.761 39.6722 65.7778H40.7C40.7 60.3285 45.1174 55.9111 50.5667 55.9111V54.8834ZM61.4611 65.7778C61.4611 59.761 56.5835 54.8834 50.5667 54.8834V55.9111C56.0159 55.9111 60.4333 60.3285 60.4333 65.7778H61.4611ZM61.4531 66.2006C61.4584 66.0604 61.4611 65.9194 61.4611 65.7778H60.4333C60.4333 65.9063 60.4309 66.0341 60.4259 66.1616L61.4531 66.2006ZM61.4482 66.3271L61.4531 66.2006L60.4259 66.1616L60.4212 66.2878L61.4482 66.3271ZM61.3994 66.0541L61.3139 65.9608L60.5554 66.6543L60.6407 66.7476L61.3994 66.0541ZM77.6079 75.2015C72.2289 73.8718 66.0347 71.1253 61.3994 66.0541L60.6407 66.7476C65.4559 72.0156 71.8577 74.8387 77.3612 76.1993L77.6079 75.2015ZM77.7561 75.2381L77.6079 75.2015L77.3612 76.1993L77.5094 76.2359L77.7561 75.2381ZM77.4299 75.2408L77.3109 75.3363L77.9547 76.1376L78.0735 76.042L77.4299 75.2408ZM79.1204 74.0455C78.5317 74.4097 77.9672 74.8091 77.4299 75.2408L78.0735 76.042C78.5783 75.6367 79.1085 75.2615 79.6612 74.9195L79.1204 74.0455ZM79.225 73.9807L79.1204 74.0455L79.6612 74.9195L79.7658 74.8547L79.225 73.9807ZM79.0297 74.1682L78.9985 74.2874L79.9926 74.548L80.0238 74.429L79.0297 74.1682ZM79.6071 60.4771C80.3955 63.8417 80.5562 68.3483 79.0297 74.1682L80.0238 74.429C81.5893 68.4605 81.4374 63.7837 80.6078 60.2428L79.6071 60.4771ZM79.5784 60.3544L79.6071 60.4771L80.6078 60.2428L80.579 60.1199L79.5784 60.3544ZM79.6974 60.6042L79.8041 60.6716L80.3533 59.8027L80.2466 59.7353L79.6974 60.6042ZM74.6167 51.3889C74.6167 55.2684 76.6447 58.6742 79.6974 60.6042L80.2466 59.7353C77.4792 57.9858 75.6444 54.9015 75.6444 51.3889H74.6167ZM37.2056 80.7834C33.5728 80.7834 30.6278 83.7284 30.6278 87.3611H31.6556C31.6556 84.2959 34.1403 81.8111 37.2056 81.8111V80.7834ZM43.7833 87.3611C43.7833 83.7284 40.8383 80.7834 37.2056 80.7834V81.8111C40.2708 81.8111 42.7556 84.2959 42.7556 87.3611H43.7833ZM37.2056 93.9389C40.8383 93.9389 43.7833 90.9939 43.7833 87.3611H42.7556C42.7556 90.4264 40.2708 92.9111 37.2056 92.9111V93.9389ZM30.6278 87.3611C30.6278 90.9939 33.5728 93.9389 37.2056 93.9389V92.9111C34.1403 92.9111 31.6556 90.4264 31.6556 87.3611H30.6278ZM31.0389 87.3611C31.0389 83.9553 33.7997 81.1945 37.2056 81.1945V80.1667C33.2322 80.1667 30.0111 83.3878 30.0111 87.3611H31.0389ZM37.2056 93.5278C33.7997 93.5278 31.0389 90.767 31.0389 87.3611H30.0111C30.0111 91.3345 33.2322 94.5556 37.2056 94.5556V93.5278ZM43.3722 87.3611C43.3722 90.767 40.6114 93.5278 37.2056 93.5278V94.5556C41.1789 94.5556 44.4 91.3345 44.4 87.3611H43.3722ZM37.2056 81.1945C40.6114 81.1945 43.3722 83.9553 43.3722 87.3611H44.4C44.4 83.3878 41.1789 80.1667 37.2056 80.1667V81.1945Z" fill="white"/>
<path d="M85.7413 82.3373C87.3693 82.3373 88.6849 82.8553 89.688 83.8913C90.6911 84.9109 91.1926 86.3415 91.1926 88.1833V96.2H87.7393V88.652C87.7393 87.5667 87.468 86.7362 86.9253 86.1607C86.3826 85.5687 85.6426 85.2727 84.7053 85.2727C83.7515 85.2727 82.9951 85.5687 82.436 86.1607C81.8933 86.7362 81.622 87.5667 81.622 88.652V96.2H78.1686V82.5347H81.622V84.2367C82.0824 83.6447 82.6662 83.1842 83.3733 82.8553C84.0969 82.51 84.8862 82.3373 85.7413 82.3373ZM107.18 89.0713C107.18 89.5647 107.147 90.0087 107.081 90.4033H97.0913C97.1735 91.39 97.5188 92.1629 98.1273 92.722C98.7357 93.2811 99.4839 93.5607 100.372 93.5607C101.655 93.5607 102.567 93.0098 103.11 91.908H106.835C106.44 93.2235 105.683 94.3089 104.565 95.164C103.447 96.0027 102.074 96.422 100.446 96.422C99.1304 96.422 97.9464 96.1342 96.8939 95.5587C95.8579 94.9667 95.0439 94.1362 94.4519 93.0673C93.8764 91.9984 93.5886 90.7651 93.5886 89.3673C93.5886 87.9531 93.8764 86.7115 94.4519 85.6427C95.0275 84.5738 95.8333 83.7515 96.8693 83.176C97.9053 82.6004 99.0975 82.3127 100.446 82.3127C101.745 82.3127 102.904 82.5922 103.924 83.1513C104.96 83.7104 105.757 84.508 106.317 85.544C106.892 86.5635 107.18 87.7393 107.18 89.0713ZM103.603 88.0847C103.587 87.1967 103.266 86.4895 102.641 85.9633C102.016 85.4207 101.252 85.1493 100.347 85.1493C99.4922 85.1493 98.7686 85.4124 98.1766 85.9387C97.601 86.4484 97.2475 87.1638 97.1159 88.0847H103.603ZM113.721 85.3713V91.982C113.721 92.4424 113.828 92.7795 114.042 92.9933C114.272 93.1907 114.65 93.2893 115.176 93.2893H116.78V96.2H114.609C111.698 96.2 110.243 94.7858 110.243 91.9573V85.3713H108.615V82.5347H110.243V79.1553H113.721V82.5347H116.78V85.3713H113.721ZM122.717 77.9467V96.2H119.264V77.9467H122.717ZM125.241 89.318C125.241 87.9367 125.512 86.7115 126.055 85.6427C126.614 84.5738 127.362 83.7515 128.3 83.176C129.253 82.6004 130.314 82.3127 131.482 82.3127C132.501 82.3127 133.389 82.5182 134.146 82.9293C134.918 83.3404 135.535 83.8584 135.996 84.4833V82.5347H139.474V96.2H135.996V94.202C135.552 94.8433 134.935 95.3778 134.146 95.8053C133.373 96.2164 132.476 96.422 131.457 96.422C130.306 96.422 129.253 96.126 128.3 95.534C127.362 94.942 126.614 94.1115 126.055 93.0427C125.512 91.9573 125.241 90.7158 125.241 89.318ZM135.996 89.3673C135.996 88.5287 135.831 87.8133 135.502 87.2213C135.173 86.6129 134.729 86.1524 134.17 85.84C133.611 85.5111 133.011 85.3467 132.37 85.3467C131.728 85.3467 131.136 85.5029 130.594 85.8153C130.051 86.1278 129.607 86.5882 129.262 87.1967C128.933 87.7887 128.768 88.4958 128.768 89.318C128.768 90.1402 128.933 90.8638 129.262 91.4887C129.607 92.0971 130.051 92.5658 130.594 92.8947C131.153 93.2235 131.745 93.388 132.37 93.388C133.011 93.388 133.611 93.2318 134.17 92.9193C134.729 92.5904 135.173 92.13 135.502 91.538C135.831 90.9295 135.996 90.206 135.996 89.3673ZM146.3 84.5327C146.744 83.8749 147.352 83.3404 148.125 82.9293C148.914 82.5182 149.811 82.3127 150.814 82.3127C151.981 82.3127 153.034 82.6004 153.971 83.176C154.925 83.7515 155.673 84.5738 156.216 85.6427C156.775 86.6951 157.054 87.9202 157.054 89.318C157.054 90.7158 156.775 91.9573 156.216 93.0427C155.673 94.1115 154.925 94.942 153.971 95.534C153.034 96.126 151.981 96.422 150.814 96.422C149.794 96.422 148.898 96.2247 148.125 95.83C147.368 95.4189 146.76 94.8927 146.3 94.2513V96.2H142.846V77.9467H146.3V84.5327ZM153.527 89.318C153.527 88.4958 153.354 87.7887 153.009 87.1967C152.68 86.5882 152.236 86.1278 151.677 85.8153C151.134 85.5029 150.542 85.3467 149.901 85.3467C149.276 85.3467 148.684 85.5111 148.125 85.84C147.582 86.1524 147.138 86.6129 146.793 87.2213C146.464 87.8298 146.3 88.5451 146.3 89.3673C146.3 90.1895 146.464 90.9049 146.793 91.5133C147.138 92.1218 147.582 92.5904 148.125 92.9193C148.684 93.2318 149.276 93.388 149.901 93.388C150.542 93.388 151.134 93.2235 151.677 92.8947C152.236 92.5658 152.68 92.0971 153.009 91.4887C153.354 90.8802 153.527 90.1567 153.527 89.318Z" fill="white"/>
</svg>
