<svg width="115" height="66" viewBox="0 0 115 66" fill="none" xmlns="http://www.w3.org/2000/svg">
<g filter="url(#filter0_d_1_55)">
<path d="M33.52 57.56C28.24 57.56 23.3867 56.3333 18.96 53.88C14.5867 51.4267 11.0933 48.0133 8.48 43.64C5.92 39.2133 4.64 34.2533 4.64 28.76C4.64 23.2667 5.92 18.3333 8.48 13.96C11.0933 9.58667 14.5867 6.17333 18.96 3.72C23.3867 1.26667 28.24 0.039999 33.52 0.039999C38.8 0.039999 43.6267 1.26667 48 3.72C52.4267 6.17333 55.8933 9.58667 58.4 13.96C60.96 18.3333 62.24 23.2667 62.24 28.76C62.24 34.2533 60.96 39.2133 58.4 43.64C55.84 48.0133 52.3733 51.4267 48 53.88C43.6267 56.3333 38.8 57.56 33.52 57.56ZM33.52 45.08C38 45.08 41.5733 43.5867 44.24 40.6C46.96 37.6133 48.32 33.6667 48.32 28.76C48.32 23.8 46.96 19.8533 44.24 16.92C41.5733 13.9333 38 12.44 33.52 12.44C28.9867 12.44 25.36 13.9067 22.64 16.84C19.9733 19.7733 18.64 23.7467 18.64 28.76C18.64 33.72 19.9733 37.6933 22.64 40.68C25.36 43.6133 28.9867 45.08 33.52 45.08ZM90.1706 57.56C86.064 57.56 82.384 56.8933 79.1306 55.56C75.8773 54.2267 73.264 52.2533 71.2906 49.64C69.3706 47.0267 68.3573 43.88 68.2506 40.2H82.8106C83.024 42.28 83.744 43.88 84.9706 45C86.1973 46.0667 87.7973 46.6 89.7706 46.6C91.7973 46.6 93.3973 46.1467 94.5706 45.24C95.744 44.28 96.3306 42.9733 96.3306 41.32C96.3306 39.9333 95.8506 38.7867 94.8906 37.88C93.984 36.9733 92.8373 36.2267 91.4506 35.64C90.1173 35.0533 88.1973 34.3867 85.6906 33.64C82.064 32.52 79.104 31.4 76.8106 30.28C74.5173 29.16 72.544 27.5067 70.8906 25.32C69.2373 23.1333 68.4106 20.28 68.4106 16.76C68.4106 11.5333 70.304 7.45333 74.0906 4.52C77.8773 1.53333 82.8106 0.039999 88.8906 0.039999C95.0773 0.039999 100.064 1.53333 103.851 4.52C107.637 7.45333 109.664 11.56 109.931 16.84H95.1306C95.024 15.0267 94.3573 13.6133 93.1306 12.6C91.904 11.5333 90.3306 11 88.4106 11C86.7573 11 85.424 11.4533 84.4106 12.36C83.3973 13.2133 82.8906 14.4667 82.8906 16.12C82.8906 17.9333 83.744 19.3467 85.4506 20.36C87.1573 21.3733 89.824 22.4667 93.4506 23.64C97.0773 24.8667 100.011 26.04 102.251 27.16C104.544 28.28 106.517 29.9067 108.171 32.04C109.824 34.1733 110.651 36.92 110.651 40.28C110.651 43.48 109.824 46.3867 108.171 49C106.571 51.6133 104.224 53.6933 101.131 55.24C98.0373 56.7867 94.384 57.56 90.1706 57.56Z" fill="url(#paint0_linear_1_55)"/>
</g>
<defs>
<filter id="filter0_d_1_55" x="0.639999" y="0.039978" width="114.011" height="65.52" filterUnits="userSpaceOnUse" color-interpolation-filters="sRGB">
<feFlood flood-opacity="0" result="BackgroundImageFix"/>
<feColorMatrix in="SourceAlpha" type="matrix" values="0 0 0 0 0 0 0 0 0 0 0 0 0 0 0 0 0 0 127 0" result="hardAlpha"/>
<feOffset dy="4"/>
<feGaussianBlur stdDeviation="2"/>
<feComposite in2="hardAlpha" operator="out"/>
<feColorMatrix type="matrix" values="0 0 0 0 0 0 0 0 0 0 0 0 0 0 0 0 0 0 0.6 0"/>
<feBlend mode="normal" in2="BackgroundImageFix" result="effect1_dropShadow_1_55"/>
<feBlend mode="normal" in="SourceGraphic" in2="effect1_dropShadow_1_55" result="shape"/>
</filter>
<linearGradient id="paint0_linear_1_55" x1="58.5" y1="-31" x2="58.5" y2="89" gradientUnits="userSpaceOnUse">
<stop stop-color="#B02E67"/>
<stop offset="0.730769" stop-color="#F47A48"/>
</linearGradient>
</defs>
</svg>
