<svg width="163" height="66" viewBox="0 0 163 66" fill="none" xmlns="http://www.w3.org/2000/svg">
<g filter="url(#filter0_d_1_57)">
<path d="M26.28 57.56C22.1733 57.56 18.4933 56.8933 15.24 55.56C11.9867 54.2267 9.37333 52.2533 7.4 49.64C5.48 47.0267 4.46667 43.88 4.36 40.2H18.92C19.1333 42.28 19.8533 43.88 21.08 45C22.3067 46.0667 23.9067 46.6 25.88 46.6C27.9067 46.6 29.5067 46.1467 30.68 45.24C31.8533 44.28 32.44 42.9733 32.44 41.32C32.44 39.9333 31.96 38.7867 31 37.88C30.0933 36.9733 28.9467 36.2267 27.56 35.64C26.2267 35.0533 24.3067 34.3867 21.8 33.64C18.1733 32.52 15.2133 31.4 12.92 30.28C10.6267 29.16 8.65333 27.5067 7 25.32C5.34667 23.1333 4.52 20.28 4.52 16.76C4.52 11.5333 6.41333 7.45333 10.2 4.52C13.9867 1.53333 18.92 0.039999 25 0.039999C31.1867 0.039999 36.1733 1.53333 39.96 4.52C43.7467 7.45333 45.7733 11.56 46.04 16.84H31.24C31.1333 15.0267 30.4667 13.6133 29.24 12.6C28.0133 11.5333 26.44 11 24.52 11C22.8667 11 21.5333 11.4533 20.52 12.36C19.5067 13.2133 19 14.4667 19 16.12C19 17.9333 19.8533 19.3467 21.56 20.36C23.2667 21.3733 25.9333 22.4667 29.56 23.64C33.1867 24.8667 36.12 26.04 38.36 27.16C40.6533 28.28 42.6267 29.9067 44.28 32.04C45.9333 34.1733 46.76 36.92 46.76 40.28C46.76 43.48 45.9333 46.3867 44.28 49C42.68 51.6133 40.3333 53.6933 37.24 55.24C34.1467 56.7867 30.4933 57.56 26.28 57.56ZM89.1788 28.2C92.4321 28.8933 95.0454 30.52 97.0188 33.08C98.9921 35.5867 99.9788 38.4667 99.9788 41.72C99.9788 46.4133 98.3254 50.1467 95.0188 52.92C91.7654 55.64 87.2054 57 81.3388 57H55.1788V0.839998H80.4588C86.1654 0.839998 90.6188 2.14666 93.8188 4.76C97.0721 7.37333 98.6988 10.92 98.6988 15.4C98.6988 18.7067 97.8188 21.4533 96.0588 23.64C94.3521 25.8267 92.0588 27.3467 89.1788 28.2ZM68.8588 23.56H77.8188C80.0588 23.56 81.7654 23.08 82.9388 22.12C84.1654 21.1067 84.7788 19.64 84.7788 17.72C84.7788 15.8 84.1654 14.3333 82.9388 13.32C81.7654 12.3067 80.0588 11.8 77.8188 11.8H68.8588V23.56ZM78.9388 45.96C81.2321 45.96 82.9921 45.4533 84.2188 44.44C85.4988 43.3733 86.1388 41.8533 86.1388 39.88C86.1388 37.9067 85.4721 36.36 84.1388 35.24C82.8588 34.12 81.0721 33.56 78.7788 33.56H68.8588V45.96H78.9388ZM128.953 0.839998C134.873 0.839998 140.046 2.01333 144.473 4.36C148.9 6.70666 152.313 10.0133 154.713 14.28C157.166 18.4933 158.393 23.3733 158.393 28.92C158.393 34.4133 157.166 39.2933 154.713 43.56C152.313 47.8267 148.873 51.1333 144.393 53.48C139.966 55.8267 134.82 57 128.953 57H107.913V0.839998H128.953ZM128.073 45.16C133.246 45.16 137.273 43.7467 140.153 40.92C143.033 38.0933 144.473 34.0933 144.473 28.92C144.473 23.7467 143.033 19.72 140.153 16.84C137.273 13.96 133.246 12.52 128.073 12.52H121.593V45.16H128.073Z" fill="url(#paint0_linear_1_57)"/>
</g>
<defs>
<filter id="filter0_d_1_57" x="0.359985" y="0.039978" width="162.033" height="65.52" filterUnits="userSpaceOnUse" color-interpolation-filters="sRGB">
<feFlood flood-opacity="0" result="BackgroundImageFix"/>
<feColorMatrix in="SourceAlpha" type="matrix" values="0 0 0 0 0 0 0 0 0 0 0 0 0 0 0 0 0 0 127 0" result="hardAlpha"/>
<feOffset dy="4"/>
<feGaussianBlur stdDeviation="2"/>
<feComposite in2="hardAlpha" operator="out"/>
<feColorMatrix type="matrix" values="0 0 0 0 0 0 0 0 0 0 0 0 0 0 0 0 0 0 0.6 0"/>
<feBlend mode="normal" in2="BackgroundImageFix" result="effect1_dropShadow_1_57"/>
<feBlend mode="normal" in="SourceGraphic" in2="effect1_dropShadow_1_57" result="shape"/>
</filter>
<linearGradient id="paint0_linear_1_57" x1="81.5" y1="-31" x2="81.5" y2="89" gradientUnits="userSpaceOnUse">
<stop offset="0.384615" stop-color="#F47A48"/>
<stop offset="1" stop-color="#00E5C3"/>
</linearGradient>
</defs>
</svg>
